<svg xmlns="http://www.w3.org/2000/svg" width="73" height="26.8" viewBox="0 0 73 26.8">
  <path id="Exclusion_2" data-name="Exclusion 2" d="M-3272.562,26.8a2.03,2.03,0,0,1-1.7-.923l-3.4-5.193a6.888,6.888,0,0,0-5.772-3.152,6.889,6.889,0,0,0-5.773,3.152l-3.393,5.193a2.02,2.02,0,0,1-1.692.923,2,2,0,0,1-.343-.03l-13.668-2.387a2.073,2.073,0,0,1-1.712-2.044V2.078A2.108,2.108,0,0,1-3307.932,0h49a2.11,2.11,0,0,1,2.078,2.078V22.34a2.075,2.075,0,0,1-1.712,2.044l-13.657,2.387A2.013,2.013,0,0,1-3272.562,26.8Zm4.86-25.551V24.611l5.616-.905V1.249Zm-37.18,0V23.706l5.616.905V1.249ZM-3247,19.762h-3.887V4.335H-3247V19.761Zm-69.112,0H-3320V4.335h3.888V19.761Z" transform="translate(3320)" fill="#fdc52c"/>
</svg>
